<?xml version="1.0" encoding="UTF-8" standalone="no"?>
<svg
   id="svg31"
   xml:space="preserve"
   viewBox="0 0 148.20639 50.281777"
   y="0px"
   x="0px"
   version="1.1"
   sodipodi:docname="logo.svg"
   width="148.20639"
   height="50.281776"
   inkscape:version="1.2.2 (b0a8486541, 2022-12-01)"
   xmlns:inkscape="http://www.inkscape.org/namespaces/inkscape"
   xmlns:sodipodi="http://sodipodi.sourceforge.net/DTD/sodipodi-0.dtd"
   xmlns="http://www.w3.org/2000/svg"
   xmlns:svg="http://www.w3.org/2000/svg"
   xmlns:rdf="http://www.w3.org/1999/02/22-rdf-syntax-ns#"
   xmlns:cc="http://creativecommons.org/ns#"
   xmlns:dc="http://purl.org/dc/elements/1.1/"><sodipodi:namedview
     id="namedview33"
     pagecolor="#505050"
     bordercolor="#eeeeee"
     borderopacity="1"
     inkscape:showpageshadow="0"
     inkscape:pageopacity="0"
     inkscape:pagecheckerboard="0"
     inkscape:deskcolor="#505050"
     showgrid="false"
     inkscape:zoom="2"
     inkscape:cx="194.5"
     inkscape:cy="122.5"
     inkscape:window-width="3840"
     inkscape:window-height="2116"
     inkscape:window-x="0"
     inkscape:window-y="0"
     inkscape:window-maximized="1"
     inkscape:current-layer="svg31" /><metadata
     id="metadata37"><rdf:RDF><cc:Work
         rdf:about=""><dc:format>image/svg+xml</dc:format><dc:type
           rdf:resource="http://purl.org/dc/dcmitype/StillImage" /></cc:Work></rdf:RDF></metadata><defs
     id="defs35" /><g
     style="stroke-width:0;stroke-miterlimit:2"
     transform="matrix(0.33388861,0,0,0.33388861,-97.51484,-103.07141)"
     stroke-miterlimit="2"
     id="logo-group"><path
       d="m 292.06,454.04 v -21.804 h 5.1571 v 8.6496 l 7.8662,-8.6496 h 6.2995 l -8.617,9.335 9.0413,12.468 h -5.9731 l -6.3974,-8.8781 -2.2195,2.448 v 6.4301 z"
       style="font-variant-ligatures:none;fill:#209680"
       id="path403973" /><path
       d="m 315.59,445.85 q 0,-1.9258 0.68544,-3.4925 0.68544,-1.5667 1.8605,-2.6765 1.2077,-1.1098 2.7744,-1.6973 1.5994,-0.58752 3.3619,-0.58752 1.991,0 3.5904,0.75072 1.5994,0.71808 2.6765,2.0237 1.0771,1.273 1.5994,3.0682 0.55488,1.7952 0.42432,3.9494 h -11.979 q 0.0653,0.84864 0.39168,1.5014 0.35904,0.62016 0.84864,1.0445 0.52224,0.42432 1.175,0.6528 0.6528,0.19584 1.3382,0.19584 1.1424,0 1.9584,-0.3264 0.84864,-0.3264 1.3056,-0.88128 l 3.9494,1.4362 q -1.273,1.8605 -3.1987,2.7418 -1.8931,0.88128 -3.8842,0.88128 -1.9584,0 -3.5904,-0.58752 -1.632,-0.58752 -2.807,-1.6973 -1.175,-1.10978 -1.8278,-2.7091 -0.6528,-1.5994 -0.6528,-3.5904 z m 4.9939,-1.5994 h 7.3766 q -0.0653,-1.5667 -1.0771,-2.3501 -1.0118,-0.816 -2.4806,-0.816 -1.4035,0 -2.5133,0.75072 -1.0771,0.75072 -1.3056,2.4154 z"
       style="font-variant-ligatures:none;fill:#209680"
       id="path403975" /><path
       d="m 337.85,445.85 q 0,-1.9258 0.68544,-3.4925 0.68544,-1.5667 1.8605,-2.6765 1.2077,-1.1098 2.7744,-1.6973 1.5994,-0.58752 3.3619,-0.58752 1.991,0 3.5904,0.75072 1.5994,0.71808 2.6765,2.0237 1.0771,1.273 1.5994,3.0682 0.55488,1.7952 0.42432,3.9494 h -11.979 q 0.0653,0.84864 0.39168,1.5014 0.35904,0.62016 0.84864,1.0445 0.52224,0.42432 1.175,0.6528 0.6528,0.19584 1.3382,0.19584 1.1424,0 1.9584,-0.3264 0.84864,-0.3264 1.3056,-0.88128 l 3.9494,1.4362 q -1.273,1.8605 -3.1987,2.7418 -1.8931,0.88128 -3.8842,0.88128 -1.9584,0 -3.5904,-0.58752 -1.632,-0.58752 -2.807,-1.6973 -1.175,-1.10978 -1.8278,-2.7091 -0.6528,-1.5994 -0.6528,-3.5904 z m 4.9939,-1.5994 h 7.3766 q -0.0653,-1.5667 -1.0771,-2.3501 -1.0118,-0.816 -2.4806,-0.816 -1.4035,0 -2.5133,0.75072 -1.0771,0.75072 -1.3056,2.4154 z"
       style="font-variant-ligatures:none;fill:#209680"
       id="path403977" /><path
       d="m 360.96,437.85 h 4.3085 l 0.6528,2.2195 q 0.39168,-0.68544 0.94656,-1.175 0.58752,-0.4896 1.2403,-0.816 0.68544,-0.35904 1.3709,-0.52224 0.71808,-0.1632 1.3709,-0.1632 1.5667,0 2.8723,0.62016 1.3056,0.58752 2.2522,1.6973 0.9792,1.1098 1.5014,2.7091 0.52224,1.5667 0.52224,3.5251 0,1.991 -0.52224,3.5904 -0.52224,1.5667 -1.5014,2.6765 -0.94656,1.0771 -2.2522,1.6646 -1.3056,0.55488 -2.8723,0.55488 -0.6528,0 -1.3709,-0.1632 -0.68544,-0.1632 -1.3709,-0.4896 -0.6528,-0.35904 -1.2403,-0.84864 -0.55488,-0.52224 -0.94656,-1.2077 v 7.5725 H 360.96 Z m 8.3232,12.73 q 0.71808,0 1.3709,-0.29376 0.6528,-0.29376 1.1424,-0.88128 0.4896,-0.58752 0.75072,-1.4362 0.29376,-0.88128 0.29376,-2.0237 0,-1.1098 -0.29376,-1.991 -0.26112,-0.88128 -0.75072,-1.4688 -0.4896,-0.62016 -1.1424,-0.91392 -0.6528,-0.3264 -1.3709,-0.3264 -0.71808,0 -1.3709,0.26112 -0.6528,0.22848 -1.1424,0.78336 -0.4896,0.55488 -0.78336,1.4362 -0.29376,0.88128 -0.29376,2.1216 0,2.4806 1.0445,3.623 1.0771,1.1098 2.5459,1.1098 z"
       style="font-variant-ligatures:none;fill:#209680"
       id="path403979" /><path
       d="m 410.04,449.51 v 4.537 h -15.602 v -21.804 h 5.1571 v 17.267 z"
       style="font-variant-ligatures:none;fill:#209680"
       id="path403981" /><path
       d="m 415.09,445.88 q 0,-2.1869 0.68544,-3.7862 0.71808,-1.5994 1.8931,-2.6438 1.2077,-1.0445 2.7418,-1.5341 1.5667,-0.52224 3.264,-0.52224 1.6646,0 3.1987,0.52224 1.5667,0.4896 2.7418,1.5341 1.175,1.0445 1.8931,2.6438 0.71808,1.5994 0.71808,3.7862 0,2.1869 -0.71808,3.8189 -0.71808,1.5994 -1.8931,2.6438 -1.175,1.0445 -2.7418,1.5667 -1.5341,0.52224 -3.1987,0.52224 -1.6973,0 -3.264,-0.52224 -1.5341,-0.52224 -2.7418,-1.5667 -1.175,-1.0445 -1.8931,-2.6438 Q 415.09,448.0669 415.09,445.88 Z m 8.5843,4.7002 q 1.5014,0 2.4806,-1.0771 1.0118,-1.0771 1.0118,-3.623 0,-1.273 -0.29376,-2.1542 -0.26112,-0.91392 -0.75072,-1.4362 -0.45696,-0.55488 -1.1098,-0.78336 -0.62016,-0.26112 -1.3382,-0.26112 -0.71808,0 -1.3709,0.26112 -0.6528,0.22848 -1.1424,0.78336 -0.45696,0.52224 -0.75072,1.4362 -0.26112,0.88128 -0.26112,2.1542 0,2.5459 0.9792,3.623 1.0118,1.0771 2.5459,1.0771 z"
       style="font-variant-ligatures:none;fill:#209680"
       id="path403983" /><path
       d="m 445.83,437.4 q 1.0445,0 2.089,0.22848 1.0771,0.19584 2.0237,0.68544 0.9792,0.4896 1.7952,1.3056 0.84864,0.816 1.4035,2.0237 l -4.1453,1.5014 q -0.39168,-1.0445 -1.175,-1.4688 -0.75072,-0.42432 -1.6973,-0.42432 -0.68544,0 -1.3382,0.26112 -0.62016,0.22848 -1.1098,0.78336 -0.4896,0.52224 -0.78336,1.4362 -0.29376,0.88128 -0.29376,2.1542 0,1.3056 0.29376,2.2195 0.3264,0.91392 0.816,1.4688 0.4896,0.52224 1.1098,0.78336 0.6528,0.22848 1.3056,0.22848 1.0445,0 1.7626,-0.39168 0.71808,-0.42432 1.1424,-1.1424 l 4.0474,1.4688 q -0.62016,1.1098 -1.4688,1.8605 -0.84864,0.75072 -1.8278,1.2077 -0.94656,0.45696 -1.9584,0.6528 -1.01184,0.19584 -1.991,0.19584 -1.991,0 -3.5578,-0.62016 -1.5341,-0.62016 -2.6112,-1.7299 -1.0445,-1.1424 -1.5994,-2.7091 -0.52224,-1.5994 -0.52224,-3.5251 0,-1.9258 0.58752,-3.4598 0.62016,-1.5667 1.6973,-2.6765 1.1098,-1.1098 2.6112,-1.6973 1.5341,-0.62016 3.3946,-0.62016 z"
       style="font-variant-ligatures:none;fill:#209680"
       id="path403985" /><path
       d="m 458.11,449.67 q 0,-1.4688 0.78336,-2.4806 0.816,-1.0445 2.2195,-1.6973 1.4362,-0.6528 3.3946,-1.0118 1.991,-0.39168 4.3411,-0.55488 v -0.62016 q 0,-1.4035 -0.71808,-1.9584 -0.68544,-0.58752 -1.991,-0.58752 -1.0445,0 -1.7952,0.4896 -0.75072,0.45696 -1.0118,1.4362 l -4.1779,-1.5014 q 0.816,-1.632 2.7091,-2.7091 1.8931,-1.0771 4.7002,-1.0771 1.7299,0 3.0682,0.35904 1.3382,0.35904 2.2522,1.175 0.91392,0.816 1.3709,2.1216 0.4896,1.273 0.4896,3.1008 v 3.5578 q 0,0.78336 0.0326,1.6973 0.0653,0.88128 0.13056,1.7299 0.0653,0.84864 0.1632,1.632 0.0979,0.75072 0.22848,1.273 h -4.6022 l -0.58752,-1.9584 q -0.91392,1.273 -2.2848,1.8278 -1.3709,0.52224 -3.1334,0.52224 -1.1424,0 -2.1542,-0.3264 -1.0118,-0.3264 -1.7952,-0.94656 -0.75072,-0.62016 -1.2077,-1.5014 -0.42432,-0.88128 -0.42432,-1.991 z m 7.4093,1.3709 q 0.75072,0 1.3709,-0.1632 0.62016,-0.19584 1.0771,-0.62016 0.45696,-0.42432 0.71808,-1.1424 0.26112,-0.75072 0.26112,-1.8605 v -0.39168 q -1.273,0.0979 -2.3501,0.26112 -1.0445,0.1632 -1.7952,0.45696 -0.75072,0.26112 -1.175,0.68544 -0.39168,0.39168 -0.39168,1.0445 0,0.78336 0.6528,1.273 0.6528,0.45696 1.632,0.45696 z"
       style="font-variant-ligatures:none;fill:#209680"
       id="path403987" /><path
       d="m 485.77,432.24 v 15.928 q 0,1.1424 0.45696,1.5014 0.45696,0.3264 1.6973,0.3264 h 1.4035 v 4.0474 h -3.1661 q -1.5014,0 -2.5133,-0.1632 -1.0118,-0.19584 -1.6646,-0.68544 -0.62016,-0.4896 -0.91392,-1.3709 -0.26112,-0.91392 -0.26112,-2.3501 v -17.234 z"
       style="font-variant-ligatures:none;fill:#209680"
       id="path403989" /><path
       d="m 504.16,432.24 h 19.16 v 4.537 h -7.0176 v 17.267 h -5.1245 v -17.267 h -7.0176 z"
       style="font-variant-ligatures:none;fill:#209680"
       id="path403991" /><path
       d="m 531.29,437.85 0.88128,2.9702 q 0.75072,-1.9584 2.0563,-2.7418 1.3056,-0.78336 3.1661,-0.68544 v 4.9613 q -0.39168,-0.0653 -0.68544,-0.0653 -0.29376,-0.0326 -0.6528,-0.0326 -1.8278,0 -2.7744,0.84864 -0.94656,0.816 -0.94656,2.7744 v 8.16 h -4.9613 v -16.19 z"
       style="font-variant-ligatures:none;fill:#209680"
       id="path403993" /><path
       d="m 541.8,449.67 q 0,-1.4688 0.78336,-2.4806 0.816,-1.0445 2.2195,-1.6973 1.4362,-0.6528 3.3946,-1.0118 1.991,-0.39168 4.3411,-0.55488 v -0.62016 q 0,-1.4035 -0.71808,-1.9584 -0.68544,-0.58752 -1.991,-0.58752 -1.0445,0 -1.7952,0.4896 -0.75072,0.45696 -1.0118,1.4362 l -4.1779,-1.5014 q 0.816,-1.632 2.7091,-2.7091 1.8931,-1.0771 4.7002,-1.0771 1.7299,0 3.0682,0.35904 1.3382,0.35904 2.2522,1.175 0.91392,0.816 1.3709,2.1216 0.4896,1.273 0.4896,3.1008 v 3.5578 q 0,0.78336 0.0326,1.6973 0.0653,0.88128 0.13056,1.7299 0.0653,0.84864 0.1632,1.632 0.0979,0.75072 0.22848,1.273 h -4.6022 l -0.58752,-1.9584 q -0.91392,1.273 -2.2848,1.8278 -1.3709,0.52224 -3.1334,0.52224 -1.1424,0 -2.1542,-0.3264 -1.0118,-0.3264 -1.7952,-0.94656 -0.75072,-0.62016 -1.2077,-1.5014 -0.42432,-0.88128 -0.42432,-1.991 z m 7.4093,1.3709 q 0.75072,0 1.3709,-0.1632 0.62016,-0.19584 1.0771,-0.62016 0.45696,-0.42432 0.71808,-1.1424 0.26112,-0.75072 0.26112,-1.8605 v -0.39168 q -1.273,0.0979 -2.3501,0.26112 -1.0445,0.1632 -1.7952,0.45696 -0.75072,0.26112 -1.175,0.68544 -0.39168,0.39168 -0.39168,1.0445 0,0.78336 0.6528,1.273 0.6528,0.45696 1.632,0.45696 z"
       style="font-variant-ligatures:none;fill:#209680"
       id="path403995" /><path
       d="m 563.03,441.64 v -3.7862 h 2.6765 V 435.21 q 0,-1.4362 0.35904,-2.3827 0.35904,-0.9792 1.1098,-1.5341 0.78336,-0.55488 1.9584,-0.78336 1.17504,-0.22848 2.807,-0.22848 h 2.2522 v 3.9168 h -1.3709 q -0.6528,0 -1.0771,0.0653 -0.42432,0.0326 -0.68544,0.19584 -0.22848,0.1632 -0.3264,0.45696 -0.0653,0.29376 -0.0653,0.75072 v 2.1869 h 3.5251 v 3.7862 h -3.5251 v 12.403 h -4.9613 v -12.403 z"
       style="font-variant-ligatures:none;fill:#209680"
       id="path403997" /><path
       d="m 578.79,441.64 v -3.7862 h 2.6765 V 435.21 q 0,-1.4362 0.35904,-2.3827 0.35904,-0.9792 1.1098,-1.5341 0.78336,-0.55488 1.9584,-0.78336 1.17504,-0.22848 2.807,-0.22848 h 2.2522 v 3.9168 h -1.3709 q -0.6528,0 -1.0771,0.0653 -0.42432,0.0326 -0.68544,0.19584 -0.22848,0.1632 -0.3264,0.45696 -0.0653,0.29376 -0.0653,0.75072 v 2.1869 h 3.5251 v 3.7862 h -3.5251 v 12.403 h -4.9613 v -12.403 z"
       style="font-variant-ligatures:none;fill:#209680"
       id="path403999" /><path
       d="m 597.81,432.24 q 0,-1.2403 0.84864,-2.089 0.84864,-0.84864 2.089,-0.84864 1.2403,0 2.089,0.84864 0.84864,0.84864 0.84864,2.089 0,1.2077 -0.84864,2.089 -0.84864,0.84864 -2.089,0.84864 -1.2403,0 -2.089,-0.84864 Q 597.81,433.44772 597.81,432.24 Z m -2.6438,5.6141 h 8.0621 v 16.189 h -4.9939 v -12.403 h -3.0682 z"
       style="font-variant-ligatures:none;fill:#209680"
       id="path404001" /><path
       d="m 617.5,437.4 q 1.0445,0 2.089,0.22848 1.0771,0.19584 2.0237,0.68544 0.9792,0.4896 1.7952,1.3056 0.84864,0.816 1.4035,2.0237 l -4.1453,1.5014 q -0.39168,-1.0445 -1.175,-1.4688 -0.75072,-0.42432 -1.6973,-0.42432 -0.68544,0 -1.3382,0.26112 -0.62016,0.22848 -1.1098,0.78336 -0.4896,0.52224 -0.78336,1.4362 -0.29376,0.88128 -0.29376,2.1542 0,1.3056 0.29376,2.2195 0.3264,0.91392 0.816,1.4688 0.4896,0.52224 1.1098,0.78336 0.6528,0.22848 1.3056,0.22848 1.0445,0 1.7626,-0.39168 0.71808,-0.42432 1.1424,-1.1424 l 4.0474,1.4688 q -0.62016,1.1098 -1.4688,1.8605 -0.84864,0.75072 -1.8278,1.2077 -0.94656,0.45696 -1.9584,0.6528 -1.01184,0.19584 -1.991,0.19584 -1.991,0 -3.5578,-0.62016 -1.5341,-0.62016 -2.6112,-1.7299 -1.0445,-1.1424 -1.5994,-2.7091 -0.52224,-1.5994 -0.52224,-3.5251 0,-1.9258 0.58752,-3.4598 0.62016,-1.5667 1.6973,-2.6765 1.1098,-1.1098 2.6112,-1.6973 1.5341,-0.62016 3.3946,-0.62016 z"
       style="font-variant-ligatures:none;fill:#209680"
       id="path404003" /><path
       d="m 656.65,449.51 v 4.537 h -15.602 v -21.804 h 5.1571 v 17.267 z"
       style="font-variant-ligatures:none;fill:#209680"
       id="path404005" /><path
       d="m 661.7,445.88 q 0,-2.1869 0.68544,-3.7862 0.71808,-1.5994 1.8931,-2.6438 1.2077,-1.0445 2.7418,-1.5341 1.5667,-0.52224 3.264,-0.52224 1.6646,0 3.1987,0.52224 1.5667,0.4896 2.7418,1.5341 1.175,1.0445 1.8931,2.6438 0.71808,1.5994 0.71808,3.7862 0,2.1869 -0.71808,3.8189 -0.71808,1.5994 -1.8931,2.6438 -1.175,1.0445 -2.7418,1.5667 -1.5341,0.52224 -3.1987,0.52224 -1.6973,0 -3.264,-0.52224 -1.5341,-0.52224 -2.7418,-1.5667 -1.175,-1.0445 -1.8931,-2.6438 Q 661.7,448.0669 661.7,445.88 Z m 8.5843,4.7002 q 1.5014,0 2.4806,-1.0771 1.0118,-1.0771 1.0118,-3.623 0,-1.273 -0.29376,-2.1542 -0.26112,-0.91392 -0.75072,-1.4362 -0.45696,-0.55488 -1.1098,-0.78336 -0.62016,-0.26112 -1.3382,-0.26112 -0.71808,0 -1.3709,0.26112 -0.6528,0.22848 -1.1424,0.78336 -0.45696,0.52224 -0.75072,1.4362 -0.26112,0.88128 -0.26112,2.1542 0,2.5459 0.9792,3.623 1.0118,1.0771 2.5459,1.0771 z"
       style="font-variant-ligatures:none;fill:#209680"
       id="path404007" /><path
       d="m 692.44,437.4 q 1.0445,0 2.089,0.22848 1.0771,0.19584 2.0237,0.68544 0.9792,0.4896 1.7952,1.3056 0.84864,0.816 1.4035,2.0237 l -4.1453,1.5014 q -0.39168,-1.0445 -1.175,-1.4688 -0.75072,-0.42432 -1.6973,-0.42432 -0.68544,0 -1.3382,0.26112 -0.62016,0.22848 -1.1098,0.78336 -0.4896,0.52224 -0.78336,1.4362 -0.29376,0.88128 -0.29376,2.1542 0,1.3056 0.29376,2.2195 0.3264,0.91392 0.816,1.4688 0.4896,0.52224 1.1098,0.78336 0.6528,0.22848 1.3056,0.22848 1.0445,0 1.7626,-0.39168 0.71808,-0.42432 1.1424,-1.1424 l 4.0474,1.4688 q -0.62016,1.1098 -1.4688,1.8605 -0.84864,0.75072 -1.8278,1.2077 -0.94656,0.45696 -1.9584,0.6528 -1.01184,0.19584 -1.991,0.19584 -1.991,0 -3.5578,-0.62016 -1.5341,-0.62016 -2.6112,-1.7299 -1.0445,-1.1424 -1.5994,-2.7091 -0.52224,-1.5994 -0.52224,-3.5251 0,-1.9258 0.58752,-3.4598 0.62016,-1.5667 1.6973,-2.6765 1.1098,-1.1098 2.6112,-1.6973 1.5341,-0.62016 3.3946,-0.62016 z"
       style="font-variant-ligatures:none;fill:#209680"
       id="path404009" /><path
       d="m 704.72,449.67 q 0,-1.4688 0.78336,-2.4806 0.816,-1.0445 2.2195,-1.6973 1.4362,-0.6528 3.3946,-1.0118 1.991,-0.39168 4.3411,-0.55488 v -0.62016 q 0,-1.4035 -0.71808,-1.9584 -0.68544,-0.58752 -1.991,-0.58752 -1.0445,0 -1.7952,0.4896 -0.75072,0.45696 -1.0118,1.4362 l -4.1779,-1.5014 q 0.816,-1.632 2.7091,-2.7091 1.8931,-1.0771 4.7002,-1.0771 1.7299,0 3.0682,0.35904 1.3382,0.35904 2.2522,1.175 0.91392,0.816 1.3709,2.1216 0.4896,1.273 0.4896,3.1008 v 3.5578 q 0,0.78336 0.0326,1.6973 0.0653,0.88128 0.13056,1.7299 0.0653,0.84864 0.1632,1.632 0.0979,0.75072 0.22848,1.273 h -4.6022 l -0.58752,-1.9584 q -0.91392,1.273 -2.2848,1.8278 -1.3709,0.52224 -3.1334,0.52224 -1.1424,0 -2.1542,-0.3264 -1.0118,-0.3264 -1.7952,-0.94656 -0.75072,-0.62016 -1.2077,-1.5014 -0.42432,-0.88128 -0.42432,-1.991 z m 7.4093,1.3709 q 0.75072,0 1.3709,-0.1632 0.62016,-0.19584 1.0771,-0.62016 0.45696,-0.42432 0.71808,-1.1424 0.26112,-0.75072 0.26112,-1.8605 v -0.39168 q -1.273,0.0979 -2.3501,0.26112 -1.0445,0.1632 -1.7952,0.45696 -0.75072,0.26112 -1.175,0.68544 -0.39168,0.39168 -0.39168,1.0445 0,0.78336 0.6528,1.273 0.6528,0.45696 1.632,0.45696 z"
       style="font-variant-ligatures:none;fill:#209680"
       id="path404011" /><path
       d="m 732.38,432.24 v 15.928 q 0,1.1424 0.45696,1.5014 0.45696,0.3264 1.6973,0.3264 h 1.4035 v 4.0474 h -3.1661 q -1.5014,0 -2.5133,-0.1632 -1.0118,-0.19584 -1.6646,-0.68544 -0.62016,-0.4896 -0.91392,-1.3709 -0.26112,-0.91392 -0.26112,-2.3501 v -17.234 z"
       style="font-variant-ligatures:none;fill:#209680"
       id="path404013" /><path
       d="m 388.97,332.46 c -4.752,-7.488 -11.376,-13.392 -19.872,-17.568 -8.64,-4.032 -18.432,-6.192 -29.376,-6.192 h -47.664 v 22.752 h 46.512 c 8.64,0 15.552,2.448 20.736,7.344 5.184,5.04 7.92,11.808 7.92,20.304 0,8.64 -2.736,15.408 -7.92,20.304 -5.184,4.896 -12.096,7.344 -20.736,7.344 h -18 V 359.964 H 292.058 V 409.5 h 47.664 c 10.944,0 20.736,-2.016 29.376,-6.192 8.496,-4.032 15.12,-9.936 19.872,-17.568 4.608,-7.488 7.056,-16.416 7.056,-26.64 0,-10.08 -2.448,-19.008 -7.056,-26.64 z"
       style="font-variant-ligatures:none;fill:#209680"
       id="path404016" /><path
       d="m 507.93,332.46 c -4.752,-7.488 -11.376,-13.392 -19.872,-17.568 -8.64,-4.032 -18.432,-6.192 -29.376,-6.192 h -47.664 v 22.752 h 46.512 c 8.64,0 15.552,2.448 20.736,7.344 5.184,5.04 7.92,11.808 7.92,20.304 0,8.64 -2.736,15.408 -7.92,20.304 -5.184,4.896 -12.096,7.344 -20.736,7.344 h -18 V 359.964 H 411.018 V 409.5 h 47.664 c 10.944,0 20.736,-2.016 29.376,-6.192 8.496,-4.032 15.12,-9.936 19.872,-17.568 4.608,-7.488 7.056,-16.416 7.056,-26.64 0,-10.08 -2.448,-19.008 -7.056,-26.64 z"
       style="font-variant-ligatures:none;fill:#209680"
       id="path404018" /><path
       d="m 527.1,357.95 v 21.024 h 42.048 V 357.95 Z"
       style="font-variant-ligatures:none;fill:#209680"
       id="path404020" /><path
       d="m 586.24,308.7 v 100.8 h 28.512 V 308.7 Z"
       style="font-variant-ligatures:none;fill:#209680"
       id="path404022" /><path
       d="m 665.99,319.36 -7.2,-10.656 h -32.112 l 22.32,31.68 z m 42.192,57.168 -16.704,21.6 7.632,11.376 h 32.832 z m 21.456,-67.824 h -30.816 l -73.728,100.8 h 32.544 z"
       style="font-variant-ligatures:none;fill:#ccff00"
       id="path404024" /></g></svg>
